HIERARCHY
ROOT hip
{
  OFFSET 0 0 0
  CHANNELS 6 Xposition Yposition Zposition Zrotation Yrotation Xrotation
  JOINT abdomen
  {
    OFFSET 0 20.6881 -0.73152
    CHANNELS 3 Zrotation Xrotation Yrotation
    JOINT chest
    {
      OFFSET 0 11.7043 -0.48768
      CHANNELS 3 Zrotation Xrotation Yrotation
      JOINT neck
      {
        OFFSET 0 22.1894 -2.19456
        CHANNELS 3 Zrotation Xrotation Yrotation
        JOINT head
        {
          OFFSET -0.24384 7.07133 1.2192
          CHANNELS 3 Zrotation Xrotation Yrotation
          JOINT leftEye
          {
            OFFSET 4.14528 8.04674 8.04672
            CHANNELS 3 Zrotation Xrotation Yrotation
            End Site
            {
              OFFSET 1 0 0
            }
          }
          JOINT rightEye
          {
            OFFSET -3.6576 8.04674 8.04672
            CHANNELS 3 Zrotation Xrotation Yrotation
            End Site
            {
              OFFSET 1 0 0
            }
          }
        }
      }
      JOINT rCollar
      {
        OFFSET -2.68224 19.2634 -4.8768
        CHANNELS 3 Zrotation Xrotation Yrotation
        JOINT rShldr
        {
          OFFSET -8.77824 -1.95073 1.46304
          CHANNELS 3 Zrotation Xrotation Yrotation
          JOINT rForeArm
          {
            OFFSET -28.1742 -1.7115 0.48768
            CHANNELS 3 Zrotation Xrotation Yrotation
            JOINT rHand
            {
              OFFSET -22.5879 0.773209 7.07136
              CHANNELS 3 Zrotation Xrotation Yrotation
              JOINT rThumb1
              {
                OFFSET -1.2192 -0.487915 3.41376
                CHANNELS 3 Zrotation Xrotation Yrotation
                JOINT rThumb2
                {
                  OFFSET -3.37035 -0.52449 3.41376
                  CHANNELS 3 Zrotation Xrotation Yrotation
                  End Site
                  {
                    OFFSET -1.78271 -1.18214 1.43049
                  }
                }
              }
              JOINT rIndex1
              {
                OFFSET -7.75947 0.938293 5.60832
                CHANNELS 3 Zrotation Xrotation Yrotation
                JOINT rIndex2
                {
                  OFFSET -2.54057 -0.884171 1.56538
                  CHANNELS 3 Zrotation Xrotation Yrotation
                  End Site
                  {
                    OFFSET -1.62519 -0.234802 1.16502
                  }
                }
              }
              JOINT rMid1
              {
                OFFSET -8.24714 1.18213 3.41376
                CHANNELS 3 Zrotation Xrotation Yrotation
                JOINT rMid2
                {
                  OFFSET -3.10165 -0.590103 1.0647
                  CHANNELS 3 Zrotation Xrotation Yrotation
                  End Site
                  {
                    OFFSET -2.48547 -0.328903 0.83742
                  }
                }
              }
              JOINT rRing1
              {
                OFFSET -8.82822 0.546677 1.51678
                CHANNELS 3 Zrotation Xrotation Yrotation
                JOINT rRing2
                {
                  OFFSET -2.60934 -0.819778 -0.0198488
                  CHANNELS 3 Zrotation Xrotation Yrotation
                  End Site
                  {
                    OFFSET -2.33842 -0.294052 0.168128
                  }
                }
              }
              JOINT rPinky1
              {
                OFFSET -8.27202 -0.0477905 -0.4584
                CHANNELS 3 Zrotation Xrotation Yrotation
                JOINT rPinky2
                {
                  OFFSET -1.82734 -0.647385 -0.700984
                  CHANNELS 3 Zrotation Xrotation Yrotation
                  End Site
                  {
                    OFFSET -1.69225 -0.51767 -0.607171
                  }
                }
              }
            }
          }
        }
      }
      JOINT lCollar
      {
        OFFSET 2.68224 19.2634 -4.8768
        CHANNELS 3 Zrotation Xrotation Yrotation
        JOINT lShldr
        {
          OFFSET 8.77824 -1.95073 1.46304
          CHANNELS 3 Zrotation Xrotation Yrotation
          JOINT lForeArm
          {
            OFFSET 28.1742 -1.7115 0.48768
            CHANNELS 3 Zrotation Xrotation Yrotation
            JOINT lHand
            {
              OFFSET 22.5879 0.773209 7.07136
              CHANNELS 3 Zrotation Xrotation Yrotation
              JOINT lThumb1
              {
                OFFSET 1.2192 -0.487915 3.41376
                CHANNELS 3 Zrotation Xrotation Yrotation
                JOINT lThumb2
                {
                  OFFSET 3.37035 -0.52449 3.41376
                  CHANNELS 3 Zrotation Xrotation Yrotation
                  End Site
                  {
                    OFFSET 1.78271 -1.18214 1.43049
                  }
                }
              }
              JOINT lIndex1
              {
                OFFSET 7.75947 0.938293 5.60832
                CHANNELS 3 Zrotation Xrotation Yrotation
                JOINT lIndex2
                {
                  OFFSET 2.54057 -0.884171 1.56538
                  CHANNELS 3 Zrotation Xrotation Yrotation
                  End Site
                  {
                    OFFSET 1.62519 -0.234802 1.16502
                  }
                }
              }
              JOINT lMid1
              {
                OFFSET 8.24714 1.18213 3.41376
                CHANNELS 3 Zrotation Xrotation Yrotation
                JOINT lMid2
                {
                  OFFSET 3.10165 -0.590103 1.0647
                  CHANNELS 3 Zrotation Xrotation Yrotation
                  End Site
                  {
                    OFFSET 2.48547 -0.328903 0.83742
                  }
                }
              }
              JOINT lRing1
              {
                OFFSET 8.82822 0.546677 1.51678
                CHANNELS 3 Zrotation Xrotation Yrotation
                JOINT lRing2
                {
                  OFFSET 2.60934 -0.819778 -0.0198488
                  CHANNELS 3 Zrotation Xrotation Yrotation
                  End Site
                  {
                    OFFSET 2.33842 -0.294052 0.168128
                  }
                }
              }
              JOINT lPinky1
              {
                OFFSET 8.27202 -0.0477905 -0.4584
                CHANNELS 3 Zrotation Xrotation Yrotation
                JOINT lPinky2
                {
                  OFFSET 1.82734 -0.647385 -0.700984
                  CHANNELS 3 Zrotation Xrotation Yrotation
                  End Site
                  {
                    OFFSET 1.69225 -0.51767 -0.607171
                  }
                }
              }
            }
          }
        }
      }
    }
  }
  JOINT rButtock
  {
    OFFSET -8.77824 4.35084 1.2192
    CHANNELS 3 Zrotation Xrotation Yrotation
    JOINT rThigh
    {
      OFFSET 0 -1.70687 -2.19456
      CHANNELS 3 Zrotation Xrotation Yrotation
      JOINT rShin
      {
        OFFSET 0 -36.8199 0.73152
        CHANNELS 3 Zrotation Xrotation Yrotation
        JOINT rFoot
        {
          OFFSET 0.73152 -45.1104 -5.12064
          CHANNELS 3 Zrotation Xrotation Yrotation
          End Site
          {
            OFFSET -1.1221 -3.69964 12.103
          }
        }
      }
    }
  }
  JOINT lButtock
  {
    OFFSET 8.77824 4.35084 1.2192
    CHANNELS 3 Zrotation Xrotation Yrotation
    JOINT lThigh
    {
      OFFSET 0 -1.70687 -2.19456
      CHANNELS 3 Zrotation Xrotation Yrotation
      JOINT lShin
      {
        OFFSET 0 -36.8199 0.73152
        CHANNELS 3 Zrotation Xrotation Yrotation
        JOINT lFoot
        {
          OFFSET -0.73152 -45.1104 -5.12064
          CHANNELS 3 Zrotation Xrotation Yrotation
          End Site
          {
            OFFSET 1.1221 -3.69964 12.103
          }
        }
      }
    }
  }
}
MOTION
Frames:	5
Frame Time:	0.00833333
-102.327 98.0854 27.0503 -41.3888 39.8375 -30.7494 -11.7854 24.2368 8.59651 1.04467 -3.82265 2.03835 5.36178 -0.869623 11.5144 -3.68672 -11.1971 21.0149 -0.0 0.0 0.0 -0.0 0.0 0.0 3.84156e-13 -5.36132e-13 5.49471e-13 43.2249 12.6632 -11.5679 -15.0227 -7.80972 27.6362 -0.464475 -19.011 -2.77536 4.16162e-09 -1.4826e-08 6.65312e-09 7.10071e-09 -2.52404e-08 1.15698e-08 4.16162e-09 -1.4826e-08 6.65312e-09 7.73091 5.47488 0.417314 4.16162e-09 -1.4826e-08 6.65312e-09 2.90554 0.965183 0.102902 4.16163e-09 -1.4826e-08 6.65313e-09 10.2786 0.731801 0.0259123 4.16162e-09 -1.4826e-08 6.65313e-09 2.22167 -0.733487 -0.20892 3.83947e-13 -5.36163e-13 5.49171e-13 -7.67578 3.13725 0.461193 15.2287 -7.99385 -28.0504 0.0799728 -7.95874 1.12613 4.76508e-09 -3.36184e-09 7.63015e-09 8.1955e-09 -5.79584e-09 1.32274e-08 4.76508e-09 -3.36184e-09 7.63015e-09 -7.73091 5.47488 -0.417314 4.76508e-09 -3.36184e-09 7.63016e-09 -2.90554 0.965183 -0.102902 4.76508e-09 -3.36184e-09 7.63016e-09 -10.2786 0.731801 -0.0259123 4.76509e-09 -3.36184e-09 7.63015e-09 -2.22167 -0.733487 0.20892 -2.03217e-16 0.0 -3.88251e-19 -30.1749 -11.4124 -16.6659 -0.0161941 14.805 0.16835 -8.23116 -17.6933 -25.0572 2.03217e-16 0.0 3.88251e-19 38.1508 -5.38983 23.5751 0.21456 29.9629 -0.419197 -0.869624 11.4666 6.48539
-101.423 98.5239 27.0604 -41.4362 39.8264 -31.1904 -11.6779 24.491 8.21619 1.11306 -3.69144 1.94118 5.7122 -0.747561 11.7286 -3.85416 -10.9221 21.3402 -0.0 0.0 0.0 -0.0 0.0 0.0 5.64627e-13 -7.17197e-13 6.20457e-13 41.3609 13.1182 -11.6834 -15.2339 -7.99442 28.0714 -0.484598 -19.3922 -2.83562 4.77259e-09 -1.56948e-08 7.35303e-09 8.13992e-09 -2.66529e-08 1.27938e-08 4.77259e-09 -1.56948e-08 7.35302e-09 7.73091 5.47488 0.417314 4.77258e-09 -1.56948e-08 7.35303e-09 2.90554 0.965183 0.102902 4.77259e-09 -1.56948e-08 7.35303e-09 10.2786 0.731801 0.0259123 4.77258e-09 -1.56948e-08 7.35304e-09 2.22167 -0.733487 -0.20892 5.64408e-13 -7.17234e-13 6.20158e-13 -6.98203 3.08754 -1.52302 14.7087 -7.54072 -26.9911 0.0684324 -7.44313 1.05205 7.92939e-09 -4.73886e-09 8.0805e-09 1.36674e-08 -8.17419e-09 1.40183e-08 7.92939e-09 -4.73886e-09 8.0805e-09 -7.73091 5.47488 -0.417314 7.92939e-09 -4.73887e-09 8.08051e-09 -2.90554 0.965183 -0.102902 7.92938e-09 -4.73887e-09 8.08051e-09 -10.2786 0.731801 -0.0259123 7.92939e-09 -4.73887e-09 8.0805e-09 -2.22167 -0.733487 0.20892 -2.03217e-16 0.0 -3.88251e-19 -30.4474 -11.623 -16.5935 -0.0209817 14.3353 0.139067 -8.37434 -17.825 -25.3509 2.03217e-16 0.0 3.88251e-19 38.6144 -5.0531 24.0393 0.222234 30.6042 -0.430037 -0.821401 11.4217 6.0778
-100.517 98.861 27.0431 -41.4122 39.8926 -31.5545 -11.5772 24.6926 7.83946 1.12466 -3.54465 1.84296 5.99442 -0.541735 11.8964 -3.92954 -10.7791 21.609 -0.0 0.0 0.0 -0.0 0.0 0.0 8.25472e-13 -1.15174e-12 5.54689e-13 39.5385 13.5457 -11.9105 -15.458 -8.19397 28.5349 -0.500394 -19.6867 -2.88234 5.77762e-09 -1.90703e-08 6.14524e-09 9.89046e-09 -3.25139e-08 1.072e-08 5.77762e-09 -1.90703e-08 6.14524e-09 7.73091 5.47488 0.417314 5.77762e-09 -1.90703e-08 6.14524e-09 2.90554 0.965183 0.102902 5.77762e-09 -1.90703e-08 6.14524e-09 10.2786 0.731801 0.0259123 5.77761e-09 -1.90703e-08 6.14525e-09 2.22167 -0.733487 -0.20892 8.2527e-13 -1.15177e-12 5.54419e-13 -6.35432 2.93931 -3.60102 14.2008 -7.11814 -25.9598 0.0574083 -6.80078 0.960344 1.03343e-08 -6.64601e-09 6.97061e-09 1.78282e-08 -1.14723e-08 1.21003e-08 1.03342e-08 -6.64602e-09 6.97061e-09 -7.73091 5.47488 -0.417314 1.03342e-08 -6.64602e-09 6.97061e-09 -2.90554 0.965183 -0.102902 1.03342e-08 -6.64602e-09 6.97062e-09 -10.2786 0.731801 -0.0259123 1.03343e-08 -6.64602e-09 6.97061e-09 -2.22167 -0.733487 0.20892 -2.03217e-16 0.0 -3.88251e-19 -30.8667 -11.8352 -16.6807 -0.0242437 13.952 0.116822 -8.53828 -17.9515 -25.6853 2.03217e-16 0.0 3.88251e-19 38.8564 -4.80061 24.3062 0.22655 30.9449 -0.434513 -0.738805 10.6781 6.016
-99.5657 99.1621 27.0778 -41.5331 39.7524 -32.1097 -11.4694 24.8617 7.47681 1.09557 -3.38006 1.74763 6.23949 -0.289211 12.0249 -3.9473 -10.7249 21.8209 -0.0 0.0 0.0 -0.0 0.0 0.0 1.14803e-12 -1.74791e-12 4.04909e-13 37.7381 13.9696 -12.2096 -15.69 -8.40369 29.018 -0.51327 -19.9266 -2.92047 7.03914e-09 -2.39603e-08 3.69143e-09 1.21032e-08 -4.10634e-08 6.49278e-09 7.03915e-09 -2.39603e-08 3.69142e-09 7.73091 5.47488 0.417314 7.03914e-09 -2.39603e-08 3.69143e-09 2.90554 0.965183 0.102902 7.03914e-09 -2.39603e-08 3.69143e-09 10.2786 0.731801 0.0259123 7.03914e-09 -2.39603e-08 3.69144e-09 2.22167 -0.733487 -0.20892 1.14787e-12 -1.74792e-12 4.04685e-13 -5.81829 2.67788 -5.77467 13.6913 -6.71148 -24.9301 0.0477047 -6.12624 0.864351 1.24922e-08 -8.97933e-09 4.79374e-09 2.15642e-08 -1.55094e-08 8.3311e-09 1.24922e-08 -8.97933e-09 4.79375e-09 -7.73091 5.47488 -0.417314 1.24922e-08 -8.97933e-09 4.79375e-09 -2.90554 0.965183 -0.102902 1.24922e-08 -8.97933e-09 4.79375e-09 -10.2786 0.731801 -0.0259123 1.24922e-08 -8.97933e-09 4.79374e-09 -2.22167 -0.733487 0.20892 -2.03217e-16 0.0 -3.88251e-19 -31.3765 -12.0338 -16.8813 -0.0260819 13.6422 0.0997605 -8.70857 -18.0725 -26.0276 2.03217e-16 0.0 3.88251e-19 38.944 -4.62221 24.3963 0.228486 31.0847 -0.435786 -0.611307 9.32706 6.17952
-98.5013 99.4092 27.1275 -41.4771 39.5501 -32.7127 -11.3834 25.0287 7.11468 1.0841 -3.21548 1.64972 6.49185 -0.0809479 12.1398 -3.98518 -10.6404 21.9986 -0.0 0.0 0.0 -0.0 0.0 0.0 1.41185e-12 -2.27877e-12 2.24511e-13 35.9046 14.3377 -12.5141 -15.9133 -8.60802 29.4876 -0.523653 -20.1192 -2.95113 7.97756e-09 -2.81514e-08 9.32578e-10 1.37633e-08 -4.84341e-08 1.73224e-09 7.97757e-09 -2.81514e-08 9.32572e-10 7.73091 5.47488 0.417314 7.97756e-09 -2.81514e-08 9.32578e-10 2.90554 0.965183 0.102902 7.97756e-09 -2.81514e-08 9.32577e-10 10.2786 0.731801 0.0259123 7.97755e-09 -2.81514e-08 9.32585e-10 2.22167 -0.733487 -0.20892 1.41173e-12 -2.27877e-12 2.24334e-13 -5.46194 2.29555 -7.95409 13.2041 -6.33389 -23.9584 0.0369933 -5.35476 0.754827 1.37863e-08 -1.08974e-08 2.2865e-09 2.38071e-08 -1.88292e-08 3.98801e-09 1.37863e-08 -1.08975e-08 2.28651e-09 -7.73091 5.47488 -0.417314 1.37863e-08 -1.08975e-08 2.2865e-09 -2.90554 0.965183 -0.102902 1.37863e-08 -1.08975e-08 2.28651e-09 -10.2786 0.731801 -0.0259123 1.37863e-08 -1.08974e-08 2.2865e-09 -2.22167 -0.733487 0.20892 -2.03217e-16 0.0 -3.88251e-19 -31.9533 -12.2219 -17.1606 -0.0268663 13.3965 0.0888866 -8.87993 -18.179 -26.3625 2.03217e-16 0.0 3.88251e-19 38.8912 -4.45102 24.3764 0.226927 30.9363 -0.432534 -0.450344 7.66103 6.52973
